<?xml version="1.0" encoding="UTF-8" standalone="no"?>
<!-- Created with Inkscape (http://www.inkscape.org/) -->

<svg
   width="195.14381mm"
   height="89.921249mm"
   viewBox="0 0 195.14381 89.921249"
   version="1.1"
   id="svg1"
   xml:space="preserve"
   xmlns:inkscape="http://www.inkscape.org/namespaces/inkscape"
   xmlns:sodipodi="http://sodipodi.sourceforge.net/DTD/sodipodi-0.dtd"
   xmlns="http://www.w3.org/2000/svg"
   xmlns:svg="http://www.w3.org/2000/svg"><sodipodi:namedview
     id="namedview1"
     pagecolor="#ffffff"
     bordercolor="#000000"
     borderopacity="0.25"
     inkscape:showpageshadow="2"
     inkscape:pageopacity="0.0"
     inkscape:pagecheckerboard="0"
     inkscape:deskcolor="#d1d1d1"
     inkscape:document-units="mm" /><defs
     id="defs1"><inkscape:path-effect
       effect="bspline"
       id="path-effect29"
       is_visible="true"
       lpeversion="1.3"
       weight="33.333333"
       steps="2"
       helper_size="0"
       apply_no_weight="true"
       apply_with_weight="true"
       only_selected="false"
       uniform="false" /><inkscape:path-effect
       effect="bspline"
       id="path-effect29-5"
       is_visible="true"
       lpeversion="1.3"
       weight="33.333333"
       steps="2"
       helper_size="0"
       apply_no_weight="true"
       apply_with_weight="true"
       only_selected="false"
       uniform="false" /></defs><g
     inkscape:label="Layer 1"
     inkscape:groupmode="layer"
     id="layer1"
     transform="translate(-11.047801,-87.270734)"><rect
       style="opacity:0.75;fill:none;stroke:#401929;stroke-width:3;stroke-linecap:round;stroke-linejoin:bevel;stroke-dasharray:none;stroke-opacity:0.992157;paint-order:stroke markers fill"
       id="rect1"
       width="192.14383"
       height="86.921249"
       x="12.547801"
       y="88.770729"
       ry="14.474119" /><g
       class="st0"
       id="g28"
       transform="matrix(0.26458333,0,0,0.26458333,14.622866,94.591232)"
       style="fill:#401929;fill-opacity:1">
	<path
   class="st1"
   d="m 29.9,37.4 c -0.1,0.8 -0.4,1.5 -0.9,2.2 -0.5,0.7 -1.1,1.3 -2,1.7 C 26.1,41.7 24.9,42 23.4,42 22.6,42 21.7,41.9 21,41.6 20.2,41.4 19.5,41 18.9,40.5 18.3,40 17.8,39.4 17.4,38.6 17,37.8 16.8,36.9 16.8,35.8 v -1.7 h 4 V 35 c 0,0.5 0,0.9 0.1,1.3 0.1,0.4 0.2,0.8 0.4,1 0.2,0.3 0.4,0.5 0.8,0.7 0.3,0.2 0.8,0.3 1.3,0.3 0.6,0 1,-0.1 1.3,-0.3 0.3,-0.2 0.5,-0.5 0.7,-0.8 0.1,-0.3 0.2,-0.7 0.3,-1.1 0,-0.4 0,-0.8 0,-1.1 V 21.6 h 4.4 v 13.7 c 0,0.6 -0.1,1.4 -0.2,2.1 z"
   id="path1"
   style="fill:#401929;fill-opacity:1" />
	<path
   class="st1"
   d="m 33.6,31.2 c 0.4,-0.9 0.9,-1.7 1.5,-2.4 0.7,-0.7 1.4,-1.2 2.4,-1.5 0.9,-0.4 1.9,-0.5 3.1,-0.5 1.1,0 2.2,0.2 3.1,0.5 0.9,0.4 1.7,0.9 2.4,1.5 0.7,0.7 1.2,1.5 1.5,2.4 0.4,0.9 0.5,2 0.5,3.2 0,1.2 -0.2,2.2 -0.5,3.1 -0.4,0.9 -0.9,1.7 -1.5,2.4 -0.7,0.7 -1.4,1.2 -2.4,1.5 -0.9,0.4 -2,0.5 -3.1,0.5 -1.1,0 -2.2,-0.2 -3.1,-0.5 -0.9,-0.3 -1.7,-0.9 -2.4,-1.5 -0.7,-0.7 -1.2,-1.5 -1.5,-2.4 -0.4,-0.9 -0.5,-2 -0.5,-3.1 0,-1.1 0.1,-2.2 0.5,-3.2 z m 3.6,4.9 c 0.1,0.6 0.3,1 0.6,1.5 0.3,0.4 0.6,0.8 1.1,1.1 0.4,0.3 1,0.4 1.7,0.4 0.7,0 1.2,-0.1 1.7,-0.4 0.5,-0.3 0.8,-0.6 1.1,-1.1 0.3,-0.4 0.5,-0.9 0.6,-1.5 0.1,-0.5 0.2,-1.1 0.2,-1.7 0,-0.6 -0.1,-1.1 -0.2,-1.7 -0.1,-0.6 -0.3,-1.1 -0.6,-1.5 -0.3,-0.4 -0.6,-0.8 -1.1,-1 -0.5,-0.2 -1,-0.4 -1.7,-0.4 -0.7,0 -1.2,0.1 -1.7,0.4 -0.4,0.3 -0.8,0.6 -1.1,1 -0.3,0.4 -0.5,0.9 -0.6,1.5 -0.1,0.6 -0.2,1.1 -0.2,1.7 0,0.5 0.1,1.1 0.2,1.7 z"
   id="path2"
   style="fill:#401929;fill-opacity:1" />
	<path
   class="st1"
   d="m 60.4,41.6 v -2 h -0.1 c -0.5,0.8 -1.2,1.4 -2,1.8 C 57.5,41.8 56.7,42 55.8,42 54.7,42 53.9,41.9 53.2,41.6 52.5,41.3 52,40.9 51.6,40.4 51.2,39.9 50.9,39.3 50.8,38.5 50.6,37.8 50.6,36.9 50.6,36 v -8.9 h 4 v 8.2 c 0,1.2 0.2,2.1 0.6,2.7 0.4,0.6 1,0.9 2,0.9 1.1,0 1.9,-0.3 2.4,-1 0.5,-0.6 0.7,-1.7 0.7,-3.2 v -7.6 h 4 v 14.5 c 0,0 -3.9,0 -3.9,0 z"
   id="path3"
   style="fill:#401929;fill-opacity:1" />
	<path
   class="st1"
   d="m 71,27.1 v 2.7 h 0.1 c 0.2,-0.4 0.4,-0.9 0.8,-1.2 0.3,-0.4 0.7,-0.7 1.1,-1 0.4,-0.3 0.8,-0.5 1.3,-0.6 0.5,-0.1 1,-0.2 1.5,-0.2 0.3,0 0.6,0 0.9,0.1 v 3.7 c -0.2,0 -0.4,-0.1 -0.7,-0.1 -0.3,0 -0.5,0 -0.8,0 -0.7,0 -1.3,0.1 -1.8,0.4 -0.5,0.2 -0.9,0.6 -1.2,1 -0.3,0.4 -0.5,0.9 -0.7,1.5 -0.1,0.6 -0.2,1.2 -0.2,1.8 v 6.5 h -4 V 27.1 Z"
   id="path4"
   style="fill:#401929;fill-opacity:1" />
	<path
   class="st1"
   d="m 82.4,27.1 v 2 h 0.1 c 0.5,-0.8 1.2,-1.5 2,-1.8 0.8,-0.4 1.6,-0.6 2.5,-0.6 1.1,0 1.9,0.1 2.6,0.4 0.7,0.3 1.2,0.7 1.6,1.2 0.4,0.5 0.7,1.1 0.8,1.9 0.2,0.7 0.2,1.6 0.2,2.4 v 8.9 h -4 v -8.2 c 0,-1.2 -0.2,-2.1 -0.6,-2.7 -0.4,-0.6 -1,-0.9 -2,-0.9 -1.1,0 -1.9,0.3 -2.4,1 -0.5,0.6 -0.7,1.7 -0.7,3.2 v 7.6 h -4 V 27.1 Z"
   id="path5"
   style="fill:#401929;fill-opacity:1" />
	<path
   class="st1"
   d="m 95.1,31.6 c 0.1,-0.9 0.3,-1.7 0.7,-2.3 0.4,-0.6 0.9,-1.1 1.6,-1.5 0.6,-0.4 1.3,-0.6 2.1,-0.8 0.8,-0.2 1.6,-0.2 2.4,-0.2 0.7,0 1.5,0.1 2.2,0.2 0.7,0.1 1.4,0.3 2,0.6 0.6,0.3 1.1,0.7 1.5,1.2 0.4,0.5 0.6,1.2 0.6,2.1 v 7.5 c 0,0.7 0,1.3 0.1,1.9 0.1,0.6 0.2,1 0.4,1.3 h -4 c -0.1,-0.2 -0.1,-0.5 -0.2,-0.7 0,-0.2 -0.1,-0.5 -0.1,-0.7 -0.6,0.7 -1.4,1.1 -2.2,1.4 -0.9,0.3 -1.7,0.4 -2.6,0.4 -0.7,0 -1.3,-0.1 -1.9,-0.3 -0.6,-0.2 -1.1,-0.4 -1.6,-0.8 -0.4,-0.4 -0.8,-0.8 -1.1,-1.3 -0.3,-0.5 -0.4,-1.2 -0.4,-1.9 0,-0.8 0.1,-1.5 0.4,-2 0.3,-0.5 0.7,-1 1.1,-1.3 0.5,-0.3 1,-0.6 1.6,-0.7 0.6,-0.1 1.2,-0.3 1.8,-0.4 0.6,-0.1 1.2,-0.2 1.8,-0.2 0.6,-0.1 1.1,-0.1 1.5,-0.3 0.4,-0.1 0.8,-0.3 1.1,-0.5 0.3,-0.2 0.4,-0.5 0.4,-0.9 0,-0.4 -0.1,-0.8 -0.2,-1 -0.1,-0.3 -0.3,-0.4 -0.6,-0.6 -0.2,-0.1 -0.5,-0.2 -0.8,-0.3 -0.3,0 -0.6,-0.1 -1,-0.1 -0.8,0 -1.4,0.2 -1.8,0.5 -0.4,0.3 -0.7,0.9 -0.8,1.7 z m 9.1,2.9 c -0.2,0.1 -0.4,0.3 -0.6,0.3 -0.2,0 -0.5,0.2 -0.8,0.2 -0.3,0.1 -0.6,0.1 -0.9,0.1 -0.3,0 -0.6,0.1 -1,0.1 -0.3,0.1 -0.6,0.1 -0.9,0.2 -0.3,0.1 -0.5,0.2 -0.8,0.4 -0.2,0.2 -0.4,0.4 -0.5,0.6 -0.1,0.2 -0.2,0.6 -0.2,0.9 0,0.4 0.1,0.7 0.2,0.9 0.1,0.2 0.3,0.4 0.5,0.6 0.2,0.1 0.5,0.2 0.8,0.3 0.3,0.1 0.6,0.1 0.9,0.1 0.8,0 1.4,-0.1 1.8,-0.4 0.4,-0.3 0.7,-0.6 1,-0.9 0.2,-0.4 0.3,-0.7 0.4,-1.1 0,-0.4 0.1,-0.7 0.1,-0.9 z"
   id="path6"
   style="fill:#401929;fill-opacity:1" />
	<path
   class="st1"
   d="m 115.4,21.6 v 20 h -4 v -20 z"
   id="path7"
   style="fill:#401929;fill-opacity:1" />
	<path
   class="st1"
   d="m 126.4,31.2 c 0.4,-0.9 0.9,-1.7 1.5,-2.4 0.7,-0.7 1.4,-1.2 2.4,-1.5 0.9,-0.4 1.9,-0.5 3.1,-0.5 1.1,0 2.2,0.2 3.1,0.5 0.9,0.4 1.7,0.9 2.4,1.5 0.7,0.7 1.2,1.5 1.5,2.4 0.4,0.9 0.5,2 0.5,3.2 0,1.2 -0.2,2.2 -0.5,3.1 -0.4,0.9 -0.9,1.7 -1.5,2.4 -0.7,0.7 -1.4,1.2 -2.4,1.5 -0.9,0.4 -2,0.5 -3.1,0.5 -1.1,0 -2.2,-0.2 -3.1,-0.5 -0.9,-0.3 -1.7,-0.9 -2.4,-1.5 -0.7,-0.7 -1.2,-1.5 -1.5,-2.4 -0.4,-0.9 -0.5,-2 -0.5,-3.1 0,-1.1 0.1,-2.2 0.5,-3.2 z m 3.6,4.9 c 0.1,0.6 0.3,1 0.6,1.5 0.3,0.4 0.6,0.8 1.1,1.1 0.4,0.3 1,0.4 1.7,0.4 0.7,0 1.2,-0.1 1.7,-0.4 0.5,-0.3 0.8,-0.6 1.1,-1.1 0.3,-0.4 0.5,-0.9 0.6,-1.5 0.1,-0.5 0.2,-1.1 0.2,-1.7 0,-0.6 -0.1,-1.1 -0.2,-1.7 -0.1,-0.6 -0.3,-1.1 -0.6,-1.5 -0.3,-0.4 -0.6,-0.8 -1.1,-1 -0.5,-0.2 -1,-0.4 -1.7,-0.4 -0.7,0 -1.2,0.1 -1.7,0.4 -0.4,0.3 -0.8,0.6 -1.1,1 -0.3,0.4 -0.5,0.9 -0.6,1.5 -0.1,0.6 -0.2,1.1 -0.2,1.7 0,0.5 0.1,1.1 0.2,1.7 z"
   id="path8"
   style="fill:#401929;fill-opacity:1" />
	<path
   class="st1"
   d="m 141.9,29.8 v -2.7 h 2.4 V 26 c 0,-1.3 0.4,-2.3 1.2,-3.2 0.8,-0.8 2,-1.2 3.6,-1.2 0.4,0 0.7,0 1.1,0 0.4,0 0.7,0.1 1,0.1 v 3 c -0.5,-0.1 -1,-0.1 -1.5,-0.1 -0.5,0 -0.9,0.1 -1.2,0.4 -0.2,0.3 -0.4,0.7 -0.4,1.3 v 0.9 h 2.7 v 2.7 h -2.7 v 11.8 h -4 V 29.8 Z"
   id="path9"
   style="fill:#401929;fill-opacity:1" />
	<path
   class="st1"
   d="m 167.1,21.6 4.7,13.7 h 0.1 l 4.4,-13.7 h 6.2 v 20 h -4.1 V 27.4 h -0.1 l -4.9,14.2 H 170 l -4.9,-14 H 165 v 14 h -4.1 v -20 c 0,0 6.2,0 6.2,0 z"
   id="path10"
   style="fill:#401929;fill-opacity:1" />
	<path
   class="st1"
   d="m 185.7,31.6 c 0.1,-0.9 0.3,-1.7 0.7,-2.3 0.4,-0.6 0.9,-1.1 1.6,-1.5 0.6,-0.4 1.3,-0.6 2.1,-0.8 0.8,-0.2 1.6,-0.2 2.4,-0.2 0.7,0 1.5,0.1 2.2,0.2 0.7,0.1 1.4,0.3 2,0.6 0.6,0.3 1.1,0.7 1.5,1.2 0.4,0.5 0.6,1.2 0.6,2.1 v 7.5 c 0,0.7 0,1.3 0.1,1.9 0.1,0.6 0.2,1 0.4,1.3 h -4 c -0.1,-0.2 -0.1,-0.5 -0.2,-0.7 -0.1,-0.2 -0.1,-0.5 -0.1,-0.7 -0.6,0.7 -1.4,1.1 -2.2,1.4 -0.9,0.3 -1.7,0.4 -2.6,0.4 -0.7,0 -1.3,-0.1 -1.9,-0.3 -0.6,-0.2 -1.1,-0.4 -1.6,-0.8 -0.5,-0.4 -0.8,-0.8 -1,-1.3 -0.3,-0.5 -0.4,-1.2 -0.4,-1.9 0,-0.8 0.1,-1.5 0.4,-2 0.3,-0.5 0.7,-1 1.1,-1.3 0.5,-0.3 1,-0.6 1.6,-0.7 0.6,-0.1 1.2,-0.3 1.8,-0.4 0.6,-0.1 1.2,-0.2 1.8,-0.2 0.6,-0.1 1.1,-0.1 1.5,-0.3 0.4,-0.1 0.8,-0.3 1.1,-0.5 0.3,-0.2 0.4,-0.5 0.4,-0.9 0,-0.4 -0.1,-0.8 -0.2,-1 -0.1,-0.3 -0.3,-0.4 -0.6,-0.6 -0.2,-0.1 -0.5,-0.2 -0.8,-0.3 -0.3,-0.1 -0.6,-0.1 -1,-0.1 -0.8,0 -1.4,0.2 -1.8,0.5 -0.4,0.3 -0.7,0.9 -0.8,1.7 z m 9.2,2.9 c -0.2,0.1 -0.4,0.3 -0.6,0.3 -0.2,0 -0.5,0.2 -0.8,0.2 -0.3,0.1 -0.6,0.1 -0.9,0.1 -0.3,0 -0.6,0.1 -1,0.1 -0.3,0.1 -0.6,0.1 -0.9,0.2 -0.3,0.1 -0.5,0.2 -0.8,0.4 -0.2,0.2 -0.4,0.4 -0.5,0.6 -0.1,0.2 -0.2,0.6 -0.2,0.9 0,0.4 0.1,0.7 0.2,0.9 0.1,0.2 0.3,0.4 0.5,0.6 0.2,0.1 0.5,0.2 0.8,0.3 0.3,0.1 0.6,0.1 0.9,0.1 0.8,0 1.4,-0.1 1.8,-0.4 0.4,-0.3 0.7,-0.6 1,-0.9 0.2,-0.4 0.3,-0.7 0.4,-1.1 0,-0.4 0.1,-0.7 0.1,-0.9 z"
   id="path11"
   style="fill:#401929;fill-opacity:1" />
	<path
   class="st1"
   d="m 209.9,27.1 v 2.7 H 207 V 37 c 0,0.7 0.1,1.1 0.3,1.3 0.2,0.2 0.7,0.3 1.3,0.3 0.2,0 0.4,0 0.6,0 0.2,0 0.4,0 0.6,-0.1 v 3.1 c -0.3,0.1 -0.7,0.1 -1.1,0.1 -0.4,0 -0.8,0 -1.2,0 -0.6,0 -1.2,0 -1.8,-0.1 -0.6,-0.1 -1,-0.2 -1.5,-0.5 -0.4,-0.2 -0.8,-0.6 -1,-1 -0.2,-0.4 -0.4,-1 -0.4,-1.8 v -8.5 h -2.4 v -2.7 h 2.4 v -4.3 h 4 v 4.3 c 0,0 3.1,0 3.1,0 z"
   id="path12"
   style="fill:#401929;fill-opacity:1" />
	<path
   class="st1"
   d="m 215.8,21.6 v 7.5 h 0.1 c 0.5,-0.8 1.1,-1.5 1.9,-1.8 0.8,-0.3 1.5,-0.6 2.3,-0.6 1.1,0 1.9,0.1 2.6,0.4 0.7,0.3 1.2,0.7 1.6,1.2 0.4,0.5 0.7,1.1 0.8,1.9 0.1,0.8 0.2,1.6 0.2,2.4 v 8.9 h -4 v -8.2 c 0,-1.2 -0.2,-2.1 -0.6,-2.7 -0.4,-0.6 -1,-0.9 -2,-0.9 -1.1,0 -1.9,0.3 -2.4,1 -0.5,0.6 -0.7,1.7 -0.7,3.2 v 7.6 h -4 v -20 h 4.2 z"
   id="path13"
   style="fill:#401929;fill-opacity:1" />
	<path
   class="st1"
   d="m 232.7,38.1 c 0.6,0.6 1.5,0.9 2.6,0.9 0.8,0 1.5,-0.2 2.1,-0.6 0.6,-0.4 0.9,-0.8 1.1,-1.3 h 3.5 c -0.6,1.7 -1.4,3 -2.6,3.7 -1.2,0.7 -2.6,1.1 -4.2,1.1 -1.1,0 -2.2,-0.2 -3.1,-0.5 -0.9,-0.4 -1.7,-0.9 -2.3,-1.6 -0.6,-0.7 -1.1,-1.5 -1.5,-2.4 -0.3,-0.9 -0.5,-2 -0.5,-3.1 0,-1.1 0.2,-2.1 0.5,-3 0.4,-0.9 0.9,-1.7 1.5,-2.4 0.7,-0.7 1.4,-1.2 2.3,-1.6 0.9,-0.4 1.9,-0.6 3,-0.6 1.2,0 2.3,0.2 3.2,0.7 0.9,0.5 1.7,1.1 2.3,1.9 0.6,0.8 1,1.7 1.3,2.7 0.3,1 0.4,2.1 0.3,3.2 h -10.4 c 0,1.4 0.3,2.3 0.9,2.9 z m 4.5,-7.6 C 236.7,30 236,29.7 235,29.7 c -0.6,0 -1.2,0.1 -1.6,0.3 -0.4,0.2 -0.8,0.5 -1,0.8 -0.2,0.3 -0.4,0.7 -0.5,1 -0.1,0.4 -0.2,0.7 -0.2,1 h 6.5 c -0.2,-1 -0.5,-1.8 -1,-2.3 z"
   id="path14"
   style="fill:#401929;fill-opacity:1" />
	<path
   class="st1"
   d="m 248.4,27.1 v 2 h 0.1 c 0.5,-0.7 1.2,-1.3 1.9,-1.7 0.7,-0.4 1.6,-0.6 2.5,-0.6 0.9,0 1.8,0.2 2.5,0.5 0.7,0.3 1.3,1 1.7,1.9 0.4,-0.6 1,-1.2 1.8,-1.7 0.8,-0.5 1.6,-0.7 2.6,-0.7 0.8,0 1.5,0.1 2.1,0.3 0.6,0.2 1.2,0.5 1.7,0.9 0.5,0.4 0.8,0.9 1.1,1.6 0.3,0.7 0.4,1.5 0.4,2.4 v 9.7 h -4 v -8.2 c 0,-0.5 0,-0.9 -0.1,-1.4 0,-0.4 -0.1,-0.8 -0.3,-1.1 -0.2,-0.3 -0.4,-0.6 -0.7,-0.8 -0.3,-0.2 -0.8,-0.3 -1.3,-0.3 -0.6,0 -1,0.1 -1.4,0.3 -0.3,0.2 -0.6,0.5 -0.8,0.8 -0.2,0.3 -0.3,0.7 -0.4,1.2 -0.1,0.4 -0.1,0.9 -0.1,1.3 v 8.1 h -4 v -8.1 c 0,-0.4 0,-0.9 0,-1.3 0,-0.4 -0.1,-0.8 -0.2,-1.2 -0.1,-0.4 -0.4,-0.6 -0.7,-0.9 -0.3,-0.2 -0.8,-0.3 -1.4,-0.3 -0.2,0 -0.4,0 -0.7,0.1 -0.3,0.1 -0.6,0.2 -0.9,0.5 -0.3,0.2 -0.5,0.6 -0.7,1 -0.2,0.4 -0.3,1 -0.3,1.7 v 8.4 h -4 V 27.1 Z"
   id="path15"
   style="fill:#401929;fill-opacity:1" />
	<path
   class="st1"
   d="m 269.7,31.6 c 0.1,-0.9 0.3,-1.7 0.7,-2.3 0.4,-0.6 0.9,-1.1 1.6,-1.5 0.6,-0.4 1.3,-0.6 2.1,-0.8 0.8,-0.2 1.6,-0.2 2.4,-0.2 0.7,0 1.5,0.1 2.2,0.2 0.7,0.1 1.4,0.3 2,0.6 0.6,0.3 1.1,0.7 1.5,1.2 0.4,0.5 0.6,1.2 0.6,2.1 v 7.5 c 0,0.7 0,1.3 0.1,1.9 0.1,0.6 0.2,1 0.4,1.3 h -4 c -0.1,-0.2 -0.1,-0.5 -0.2,-0.7 -0.1,-0.2 -0.1,-0.5 -0.1,-0.7 -0.6,0.7 -1.4,1.1 -2.2,1.4 -0.9,0.3 -1.7,0.4 -2.6,0.4 -0.7,0 -1.3,-0.1 -1.9,-0.3 -0.6,-0.2 -1.1,-0.4 -1.6,-0.8 -0.5,-0.4 -0.8,-0.8 -1,-1.3 -0.3,-0.5 -0.4,-1.2 -0.4,-1.9 0,-0.8 0.1,-1.5 0.4,-2 0.3,-0.5 0.7,-1 1.1,-1.3 0.5,-0.3 1,-0.6 1.6,-0.7 0.6,-0.1 1.2,-0.3 1.8,-0.4 0.6,-0.1 1.2,-0.2 1.8,-0.2 0.6,-0.1 1.1,-0.1 1.5,-0.3 0.4,-0.1 0.8,-0.3 1.1,-0.5 0.3,-0.2 0.4,-0.5 0.4,-0.9 0,-0.4 -0.1,-0.8 -0.2,-1 -0.1,-0.3 -0.3,-0.4 -0.6,-0.6 -0.2,-0.1 -0.5,-0.2 -0.8,-0.3 -0.3,-0.1 -0.6,-0.1 -1,-0.1 -0.8,0 -1.4,0.2 -1.8,0.5 -0.4,0.3 -0.7,0.9 -0.8,1.7 z m 9.2,2.9 c -0.2,0.1 -0.4,0.3 -0.6,0.3 -0.2,0 -0.5,0.2 -0.8,0.2 -0.3,0.1 -0.6,0.1 -0.9,0.1 -0.3,0 -0.6,0.1 -1,0.1 -0.3,0.1 -0.6,0.1 -0.9,0.2 -0.3,0.1 -0.5,0.2 -0.8,0.4 -0.2,0.2 -0.4,0.4 -0.5,0.6 -0.1,0.2 -0.2,0.6 -0.2,0.9 0,0.4 0.1,0.7 0.2,0.9 0.1,0.2 0.3,0.4 0.5,0.6 0.2,0.1 0.5,0.2 0.8,0.3 0.3,0.1 0.6,0.1 0.9,0.1 0.8,0 1.4,-0.1 1.8,-0.4 0.4,-0.3 0.7,-0.6 1,-0.9 0.2,-0.4 0.3,-0.7 0.4,-1.1 0,-0.4 0.1,-0.7 0.1,-0.9 z"
   id="path16"
   style="fill:#401929;fill-opacity:1" />
	<path
   class="st1"
   d="m 293.9,27.1 v 2.7 H 291 V 37 c 0,0.7 0.1,1.1 0.3,1.3 0.2,0.2 0.7,0.3 1.3,0.3 0.2,0 0.4,0 0.6,0 0.2,0 0.4,0 0.6,-0.1 v 3.1 c -0.3,0.1 -0.7,0.1 -1.1,0.1 -0.4,0 -0.8,0 -1.2,0 -0.6,0 -1.2,0 -1.8,-0.1 -0.6,-0.1 -1,-0.2 -1.5,-0.5 -0.4,-0.2 -0.8,-0.6 -1,-1 -0.2,-0.4 -0.4,-1 -0.4,-1.8 v -8.5 h -2.4 v -2.7 h 2.4 v -4.3 h 4 v 4.3 c 0,0 3.1,0 3.1,0 z"
   id="path17"
   style="fill:#401929;fill-opacity:1" />
	<path
   class="st1"
   d="m 295.9,24.9 v -3.3 h 4 v 3.3 z m 4,2.2 v 14.5 h -4 V 27.1 Z"
   id="path18"
   style="fill:#401929;fill-opacity:1" />
	<path
   class="st1"
   d="m 310,29.7 c -0.6,0 -1.2,0.1 -1.6,0.4 -0.4,0.3 -0.8,0.7 -1,1.1 -0.3,0.5 -0.5,1 -0.6,1.5 -0.1,0.6 -0.2,1.1 -0.2,1.6 0,0.5 0.1,1.1 0.2,1.6 0.1,0.5 0.3,1 0.5,1.5 0.2,0.5 0.6,0.8 1,1.1 0.4,0.3 1,0.4 1.6,0.4 1,0 1.7,-0.3 2.2,-0.8 0.5,-0.5 0.8,-1.2 1,-2.1 h 3.8 c -0.3,1.9 -1,3.4 -2.2,4.4 -1.2,1 -2.8,1.5 -4.7,1.5 -1.1,0 -2.1,-0.2 -3,-0.5 -0.9,-0.4 -1.7,-0.9 -2.3,-1.5 -0.6,-0.7 -1.1,-1.4 -1.5,-2.3 -0.4,-0.9 -0.5,-1.9 -0.5,-3 0,-1.1 0.2,-2.2 0.5,-3.1 0.3,-1 0.8,-1.8 1.4,-2.5 0.6,-0.7 1.4,-1.2 2.3,-1.6 0.9,-0.4 2,-0.6 3.1,-0.6 0.9,0 1.7,0.1 2.5,0.3 0.8,0.2 1.5,0.6 2.1,1 0.6,0.4 1.1,1 1.5,1.7 0.4,0.7 0.6,1.5 0.7,2.4 h -3.9 c -0.3,-1.7 -1.3,-2.5 -2.9,-2.5 z"
   id="path19"
   style="fill:#401929;fill-opacity:1" />
	<path
   class="st1"
   d="m 318.9,31.6 c 0.1,-0.9 0.3,-1.7 0.7,-2.3 0.4,-0.6 0.9,-1.1 1.6,-1.5 0.6,-0.4 1.3,-0.6 2.1,-0.8 0.8,-0.2 1.6,-0.2 2.4,-0.2 0.7,0 1.5,0.1 2.2,0.2 0.7,0.1 1.4,0.3 2,0.6 0.6,0.3 1.1,0.7 1.5,1.2 0.4,0.5 0.6,1.2 0.6,2.1 v 7.5 c 0,0.7 0,1.3 0.1,1.9 0.1,0.6 0.2,1 0.4,1.3 h -4 c -0.1,-0.2 -0.1,-0.5 -0.2,-0.7 -0.1,-0.2 -0.1,-0.5 -0.1,-0.7 -0.6,0.7 -1.4,1.1 -2.2,1.4 -0.9,0.3 -1.7,0.4 -2.6,0.4 -0.7,0 -1.3,-0.1 -1.9,-0.3 -0.6,-0.2 -1.1,-0.4 -1.6,-0.8 -0.5,-0.4 -0.8,-0.8 -1,-1.3 -0.3,-0.5 -0.4,-1.2 -0.4,-1.9 0,-0.8 0.1,-1.5 0.4,-2 0.3,-0.5 0.7,-1 1.1,-1.3 0.5,-0.3 1,-0.6 1.6,-0.7 0.6,-0.1 1.2,-0.3 1.8,-0.4 0.6,-0.1 1.2,-0.2 1.8,-0.2 0.6,-0.1 1.1,-0.1 1.5,-0.3 0.4,-0.1 0.8,-0.3 1.1,-0.5 0.3,-0.2 0.4,-0.5 0.4,-0.9 0,-0.4 -0.1,-0.8 -0.2,-1 -0.1,-0.3 -0.3,-0.4 -0.6,-0.6 -0.2,-0.1 -0.5,-0.2 -0.8,-0.3 -0.3,-0.1 -0.6,-0.1 -1,-0.1 -0.8,0 -1.4,0.2 -1.8,0.5 -0.4,0.3 -0.7,0.9 -0.8,1.7 z m 9.2,2.9 c -0.2,0.1 -0.4,0.3 -0.6,0.3 -0.2,0 -0.5,0.2 -0.8,0.2 -0.3,0.1 -0.6,0.1 -0.9,0.1 -0.3,0 -0.6,0.1 -1,0.1 -0.3,0.1 -0.6,0.1 -0.9,0.2 -0.3,0.1 -0.5,0.2 -0.8,0.4 -0.2,0.2 -0.4,0.4 -0.5,0.6 -0.1,0.2 -0.2,0.6 -0.2,0.9 0,0.4 0.1,0.7 0.2,0.9 0.1,0.2 0.3,0.4 0.5,0.6 0.2,0.1 0.5,0.2 0.8,0.3 0.3,0.1 0.6,0.1 0.9,0.1 0.8,0 1.4,-0.1 1.8,-0.4 0.4,-0.3 0.7,-0.6 1,-0.9 0.2,-0.4 0.3,-0.7 0.4,-1.1 0,-0.4 0.1,-0.7 0.1,-0.9 z"
   id="path20"
   style="fill:#401929;fill-opacity:1" />
	<path
   class="st1"
   d="m 339.3,21.6 v 20 h -4 v -20 z"
   id="path21"
   style="fill:#401929;fill-opacity:1" />
	<path
   class="st1"
   d="m 359.6,21.6 c 1.2,0 2.3,0.2 3.2,0.5 0.9,0.4 1.6,0.8 2.1,1.4 0.5,0.6 1,1.3 1.2,2 0.2,0.7 0.4,1.6 0.4,2.4 0,0.8 -0.1,1.6 -0.4,2.4 -0.3,0.8 -0.7,1.5 -1.2,2.1 -0.6,0.6 -1.3,1.1 -2.1,1.4 -0.8,0.3 -1.9,0.5 -3.2,0.5 H 355 v 7.2 h -4.4 v -20 h 9 z m -1.2,9.4 c 0.5,0 1,0 1.5,-0.1 0.5,-0.1 0.9,-0.2 1.2,-0.4 0.4,-0.2 0.6,-0.5 0.9,-0.9 0.2,-0.4 0.3,-0.9 0.3,-1.5 0,-0.6 -0.1,-1.1 -0.3,-1.5 -0.2,-0.4 -0.5,-0.7 -0.9,-0.9 -0.4,-0.2 -0.8,-0.4 -1.2,-0.4 -0.5,-0.1 -1,-0.1 -1.5,-0.1 H 355 v 6 h 3.4 z"
   id="path22"
   style="fill:#401929;fill-opacity:1" />
	<path
   class="st1"
   d="m 372.8,21.6 v 7.5 h 0.1 c 0.5,-0.8 1.1,-1.5 1.9,-1.8 0.8,-0.3 1.5,-0.6 2.3,-0.6 1.1,0 1.9,0.1 2.6,0.4 0.7,0.3 1.2,0.7 1.6,1.2 0.4,0.5 0.7,1.1 0.8,1.9 0.2,0.7 0.2,1.6 0.2,2.4 v 8.9 h -4 v -8.2 c 0,-1.2 -0.2,-2.1 -0.6,-2.7 -0.4,-0.6 -1,-0.9 -2,-0.9 -1.1,0 -1.9,0.3 -2.4,1 -0.5,0.6 -0.7,1.7 -0.7,3.2 v 7.6 h -4 v -20 h 4.2 z"
   id="path23"
   style="fill:#401929;fill-opacity:1" />
	<path
   class="st1"
   d="m 390.8,45.9 c -0.8,0.5 -1.8,0.8 -3.2,0.8 -0.4,0 -0.8,0 -1.2,0 -0.4,0 -0.8,-0.1 -1.2,-0.1 v -3.3 c 0.4,0 0.8,0.1 1.1,0.1 0.4,0 0.8,0 1.2,0 0.5,-0.1 0.9,-0.3 1.2,-0.6 0.3,-0.3 0.4,-0.7 0.4,-1.2 0,-0.3 -0.1,-0.6 -0.2,-0.9 l -5.1,-13.6 h 4.2 l 3.3,9.9 h 0.1 l 3.2,-9.9 h 4.1 l -6,16.3 c -0.5,1.2 -1.1,2 -1.9,2.5 z"
   id="path24"
   style="fill:#401929;fill-opacity:1" />
	<path
   class="st1"
   d="m 403.3,38 c 0.2,0.3 0.4,0.6 0.7,0.8 0.3,0.2 0.6,0.3 1,0.4 0.4,0.1 0.7,0.1 1.1,0.1 0.3,0 0.6,0 0.9,-0.1 0.3,-0.1 0.6,-0.2 0.8,-0.3 0.3,-0.1 0.5,-0.3 0.6,-0.6 0.2,-0.2 0.3,-0.5 0.3,-0.9 0,-0.6 -0.4,-1 -1.2,-1.3 -0.8,-0.3 -1.9,-0.6 -3.3,-0.9 -0.6,-0.1 -1.1,-0.3 -1.7,-0.5 -0.6,-0.2 -1,-0.4 -1.5,-0.7 -0.4,-0.3 -0.8,-0.7 -1,-1.1 -0.3,-0.4 -0.4,-1 -0.4,-1.6 0,-0.9 0.2,-1.7 0.5,-2.3 0.4,-0.6 0.8,-1.1 1.4,-1.4 0.6,-0.3 1.3,-0.6 2,-0.7 0.7,-0.1 1.5,-0.2 2.3,-0.2 0.8,0 1.5,0.1 2.3,0.2 0.7,0.1 1.4,0.4 2,0.8 0.6,0.4 1.1,0.8 1.4,1.4 0.4,0.6 0.6,1.3 0.7,2.2 h -3.8 c -0.1,-0.8 -0.3,-1.3 -0.9,-1.6 -0.6,-0.3 -1.1,-0.4 -1.8,-0.4 -0.2,0 -0.5,0 -0.7,0 -0.3,0 -0.5,0.1 -0.7,0.2 -0.2,0.1 -0.4,0.2 -0.5,0.4 -0.1,0.2 -0.2,0.4 -0.2,0.7 0,0.4 0.1,0.6 0.4,0.9 0.3,0.3 0.6,0.4 1,0.5 0.4,0.1 0.9,0.3 1.4,0.4 0.5,0.1 1.1,0.2 1.7,0.4 0.6,0.1 1.1,0.3 1.7,0.5 0.5,0.2 1,0.4 1.5,0.7 0.4,0.3 0.8,0.7 1,1.1 0.3,0.5 0.4,1 0.4,1.7 0,1 -0.2,1.8 -0.6,2.4 -0.4,0.6 -0.9,1.2 -1.5,1.6 -0.6,0.4 -1.3,0.7 -2.1,0.8 -0.8,0.2 -1.6,0.2 -2.4,0.2 -0.8,0 -1.7,-0.1 -2.5,-0.3 -0.8,-0.2 -1.5,-0.4 -2.1,-0.8 -0.6,-0.4 -1.1,-0.9 -1.5,-1.6 -0.4,-0.6 -0.6,-1.5 -0.7,-2.4 h 3.8 c 0,0.6 0.1,1 0.2,1.3 z"
   id="path25"
   style="fill:#401929;fill-opacity:1" />
	<path
   class="st1"
   d="m 415.1,24.9 v -3.3 h 4 v 3.3 z m 4,2.2 v 14.5 h -4 V 27.1 Z"
   id="path26"
   style="fill:#401929;fill-opacity:1" />
	<path
   class="st1"
   d="m 429.2,29.7 c -0.6,0 -1.2,0.1 -1.6,0.4 -0.4,0.3 -0.8,0.7 -1,1.1 -0.3,0.5 -0.5,1 -0.6,1.5 -0.1,0.5 -0.2,1.1 -0.2,1.6 0,0.5 0.1,1.1 0.2,1.6 0.1,0.5 0.3,1 0.5,1.5 0.2,0.5 0.6,0.8 1,1.1 0.4,0.3 1,0.4 1.6,0.4 1,0 1.7,-0.3 2.2,-0.8 0.5,-0.5 0.8,-1.2 1,-2.1 h 3.8 c -0.3,1.9 -1,3.4 -2.2,4.4 -1.2,1 -2.8,1.5 -4.7,1.5 -1.1,0 -2.1,-0.2 -3,-0.5 -0.9,-0.4 -1.7,-0.9 -2.3,-1.5 -0.6,-0.6 -1.1,-1.4 -1.5,-2.3 -0.4,-0.9 -0.5,-1.9 -0.5,-3 0,-1.1 0.2,-2.2 0.5,-3.1 0.3,-1 0.8,-1.8 1.4,-2.5 0.6,-0.7 1.4,-1.2 2.3,-1.6 0.9,-0.4 2,-0.6 3.1,-0.6 0.9,0 1.7,0.1 2.5,0.3 0.8,0.2 1.5,0.6 2.1,1 0.6,0.5 1.1,1 1.5,1.7 0.4,0.7 0.6,1.5 0.7,2.4 h -3.9 c -0.2,-1.7 -1.2,-2.5 -2.9,-2.5 z"
   id="path27"
   style="fill:#401929;fill-opacity:1" />
	<path
   class="st1"
   d="m 441.7,38 c 0.2,0.3 0.4,0.6 0.7,0.8 0.3,0.2 0.6,0.3 1,0.4 0.4,0.1 0.7,0.1 1.1,0.1 0.3,0 0.6,0 0.9,-0.1 0.3,-0.1 0.6,-0.2 0.8,-0.3 0.3,-0.1 0.5,-0.3 0.6,-0.6 0.2,-0.2 0.3,-0.5 0.3,-0.9 0,-0.6 -0.4,-1 -1.2,-1.3 -0.8,-0.3 -1.9,-0.6 -3.3,-0.9 -0.6,-0.1 -1.1,-0.3 -1.7,-0.5 -0.6,-0.2 -1,-0.4 -1.5,-0.7 -0.4,-0.3 -0.8,-0.7 -1,-1.1 -0.3,-0.4 -0.4,-1 -0.4,-1.6 0,-0.9 0.2,-1.7 0.5,-2.3 0.4,-0.6 0.8,-1.1 1.4,-1.4 0.6,-0.3 1.3,-0.6 2,-0.7 0.7,-0.1 1.5,-0.2 2.3,-0.2 0.8,0 1.5,0.1 2.3,0.2 0.7,0.1 1.4,0.4 2,0.8 0.6,0.4 1.1,0.8 1.4,1.4 0.4,0.6 0.6,1.3 0.7,2.2 h -3.8 c -0.1,-0.8 -0.3,-1.3 -0.9,-1.6 -0.6,-0.3 -1.1,-0.4 -1.8,-0.4 -0.2,0 -0.5,0 -0.7,0 -0.3,0 -0.5,0.1 -0.7,0.2 -0.2,0.1 -0.4,0.2 -0.5,0.4 -0.1,0.2 -0.2,0.4 -0.2,0.7 0,0.4 0.1,0.6 0.4,0.9 0.3,0.3 0.6,0.4 1,0.5 0.4,0.1 0.9,0.3 1.4,0.4 0.5,0.1 1.1,0.2 1.7,0.4 0.6,0.1 1.1,0.3 1.7,0.5 0.5,0.2 1,0.4 1.5,0.7 0.4,0.3 0.8,0.7 1,1.1 0.3,0.5 0.4,1 0.4,1.7 0,1 -0.2,1.8 -0.6,2.4 -0.4,0.6 -0.9,1.2 -1.5,1.6 -0.6,0.4 -1.3,0.7 -2.1,0.8 -0.8,0.2 -1.6,0.2 -2.4,0.2 -0.8,0 -1.7,-0.1 -2.5,-0.3 -0.8,-0.2 -1.5,-0.4 -2.1,-0.8 -0.6,-0.4 -1.1,-0.9 -1.5,-1.6 -0.4,-0.6 -0.6,-1.5 -0.7,-2.4 h 3.8 c -0.1,0.6 0,1 0.2,1.3 z"
   id="path28"
   style="fill:#401929;fill-opacity:1" />
</g><text
       xml:space="preserve"
       style="font-style:normal;font-variant:normal;font-weight:normal;font-stretch:normal;font-size:9.87778px;line-height:1.25;font-family:'.Arial Hebrew Desk Interface';-inkscape-font-specification:'.Arial Hebrew Desk Interface';text-align:center;letter-spacing:0.132292px;text-anchor:middle;opacity:0.75;fill:#000000;fill-opacity:1;stroke:#401929;stroke-width:0.0999999;stroke-linecap:round;stroke-linejoin:bevel;stroke-dasharray:none;stroke-opacity:0.992157;paint-order:stroke markers fill"
       x="19.176754"
       y="114.25058"
       id="text4"
       transform="scale(0.96023568,1.041411)"><tspan
         sodipodi:role="line"
         id="tspan4"
         style="font-style:normal;font-variant:normal;font-weight:bold;font-stretch:normal;font-size:9.87778px;line-height:1.25;font-family:Helvetica;-inkscape-font-specification:'Helvetica Bold';text-align:start;letter-spacing:0.132292px;text-anchor:start;fill:#000000;stroke-width:0.0999999"
         x="19.176754"
         y="114.25058">Connecting stochastic optimal control</tspan><tspan
         sodipodi:role="line"
         style="font-style:normal;font-variant:normal;font-weight:bold;font-stretch:normal;font-size:9.87778px;line-height:1.25;font-family:Helvetica;-inkscape-font-specification:'Helvetica Bold';text-align:start;letter-spacing:0.132292px;text-anchor:start;fill:#000000;stroke-width:0.0999999"
         x="19.176754"
         y="126.65677"
         id="tspan5">and reinforcement learning</tspan></text><text
       xml:space="preserve"
       style="font-style:normal;font-variant:normal;font-weight:bold;font-stretch:normal;font-size:5.29167px;line-height:1.25;font-family:Helvetica;-inkscape-font-specification:'Helvetica Bold';text-align:start;letter-spacing:0.132292px;text-anchor:start;opacity:0.75;fill:#000000;fill-opacity:1;stroke:#401929;stroke-width:0.1;stroke-linecap:round;stroke-linejoin:bevel;stroke-dasharray:none;stroke-opacity:0.992157;paint-order:stroke markers fill"
       x="18.637453"
       y="144.07678"
       id="text6"><tspan
         sodipodi:role="line"
         id="tspan6"
         style="font-style:normal;font-variant:normal;font-weight:normal;font-stretch:normal;font-size:5.29167px;font-family:Helvetica;-inkscape-font-specification:Helvetica;fill:#000000;stroke-width:0.1"
         x="18.637453"
         y="144.07678">Cite as: J. Math. Phys. 65, 083512 (2024); <tspan
   style="fill:#008080"
   id="tspan7">doi: 10.1063/5.0140665 </tspan></tspan></text><text
       xml:space="preserve"
       style="font-style:normal;font-variant:normal;font-weight:bold;font-stretch:normal;font-size:6.35px;line-height:1.25;font-family:Helvetica;-inkscape-font-specification:'Helvetica Bold';text-align:start;letter-spacing:0.132292px;text-anchor:start;white-space:pre;inline-size:24.4838;opacity:0.75;fill:#000000;fill-opacity:1;stroke:#401929;stroke-width:0.1;stroke-linecap:round;stroke-linejoin:bevel;stroke-dasharray:none;stroke-opacity:0.992157;paint-order:stroke markers fill"
       x="18.602901"
       y="155.29051"
       id="text6-4"
       transform="translate(0,1.0583333)"><tspan
         x="18.602901"
         y="155.29051"
         id="tspan2"><tspan
           style="font-weight:normal;-inkscape-font-specification:Helvetica"
           id="tspan1">J. Quer </tspan></tspan></text><text
       xml:space="preserve"
       style="font-style:normal;font-variant:normal;font-weight:bold;font-stretch:normal;font-size:6.35px;line-height:1.25;font-family:Helvetica;-inkscape-font-specification:'Helvetica Bold';text-align:start;letter-spacing:0.132292px;text-anchor:start;white-space:pre;inline-size:73.0839;opacity:0.75;fill:#000000;fill-opacity:1;stroke:#401929;stroke-width:0.1;stroke-linecap:round;stroke-linejoin:bevel;stroke-dasharray:none;stroke-opacity:0.992157;paint-order:stroke markers fill"
       x="18.602901"
       y="155.29051"
       id="text6-4-2"
       transform="translate(29.774813,1.05848)"><tspan
         x="18.602901"
         y="155.29051"
         id="tspan8"><tspan
           style="font-weight:normal;-inkscape-font-specification:Helvetica"
           id="tspan3">and Enric Ribera Borrell</tspan></tspan></text><g
       id="vector_iD_icon"
       style="fill:none;fill-rule:nonzero;stroke:none;stroke-width:3.81"
       transform="matrix(0.06944444,0,0,0.06944444,41.53433,151.23232)"><path
         d="M 72,36 C 72,55.884375 55.884375,72 36,72 16.115625,72 0,55.884375 0,36 0,16.115625 16.115625,0 36,0 55.884375,0 72,16.115625 72,36 Z"
         id="Path"
         fill="#a6ce39"
         style="stroke-width:3.81" /><g
         id="Group"
         transform="translate(18.868966,12.910345)"
         fill="#ffffff"
         style="stroke-width:3.81"><polygon
           id="polygon1"
           points="5.0373493,22.69305 5.0373493,39.125088 0.69542986,39.125088 0.69542986,9.1443179 5.0373493,9.1443179 "
           style="stroke-width:3.81" /><path
           d="m 11.409257,9.1443179 h 11.728821 c 11.164936,0 16.070741,7.9220891 16.070741,15.0043811 0,7.698144 -6.061771,15.004382 -16.014352,15.004382 h -11.78521 z m 4.34192,26.1177011 h 6.907599 c 9.839804,0 12.095347,-7.418211 12.095347,-11.11332 0,-6.018548 -3.862617,-11.11332 -12.320902,-11.11332 h -6.682044 z"
           id="Shape"
           style="stroke-width:3.81" /><path
           d="m 5.7140121,2.9018233 c 0,1.5396287 -1.2687427,2.8273182 -2.8476225,2.8273182 -1.5788798,0 -2.84762251,-1.2876895 -2.84762251,-2.8273182 0,-1.567622 1.26874271,-2.82731819 2.84762251,-2.82731819 1.5788798,0 2.8476225,1.28768949 2.8476225,2.82731819 z"
           id="path1-9"
           style="stroke-width:3.81" /></g></g><g
       id="vector_iD_icon-0"
       style="fill:none;fill-rule:nonzero;stroke:none;stroke-width:3.81"
       transform="matrix(0.06944444,0,0,0.06944444,120.38543,151.07708)"><path
         d="M 72,36 C 72,55.884375 55.884375,72 36,72 16.115625,72 0,55.884375 0,36 0,16.115625 16.115625,0 36,0 55.884375,0 72,16.115625 72,36 Z"
         id="Path-9"
         fill="#a6ce39"
         style="stroke-width:3.81" /><g
         id="Group-2"
         transform="translate(18.868966,12.910345)"
         fill="#ffffff"
         style="stroke-width:3.81"><polygon
           id="polygon1-4"
           points="5.0373493,39.125088 0.69542986,39.125088 0.69542986,9.1443179 5.0373493,9.1443179 5.0373493,22.69305 "
           style="stroke-width:3.81" /><path
           d="m 11.409257,9.1443179 h 11.728821 c 11.164936,0 16.070741,7.9220891 16.070741,15.0043811 0,7.698144 -6.061771,15.004382 -16.014352,15.004382 h -11.78521 z m 4.34192,26.1177011 h 6.907599 c 9.839804,0 12.095347,-7.418211 12.095347,-11.11332 0,-6.018548 -3.862617,-11.11332 -12.320902,-11.11332 h -6.682044 z"
           id="Shape-3"
           style="stroke-width:3.81" /><path
           d="m 5.7140121,2.9018233 c 0,1.5396287 -1.2687427,2.8273182 -2.8476225,2.8273182 -1.5788798,0 -2.84762251,-1.2876895 -2.84762251,-2.8273182 0,-1.567622 1.26874271,-2.82731819 2.84762251,-2.82731819 1.5788798,0 2.8476225,1.28768949 2.8476225,2.82731819 z"
           id="path1-9-3"
           style="stroke-width:3.81" /></g></g><path
       style="opacity:0.75;fill:#000000;fill-opacity:1;stroke:#401929;stroke-width:0.5;stroke-linecap:round;stroke-linejoin:bevel;stroke-dasharray:none;stroke-opacity:0.992157;paint-order:stroke markers fill"
       d="m 18.662036,148.5 c 58.851614,0 117.703234,0 176.554844,0"
       id="path29"
       inkscape:path-effect="#path-effect29"
       inkscape:original-d="m 18.662036,148.5 c 58.851614,0 117.703234,0 176.554844,0" /><path
       style="opacity:0.75;fill:#000000;fill-opacity:1;stroke:#401929;stroke-width:0.5;stroke-linecap:round;stroke-linejoin:bevel;stroke-dasharray:none;stroke-opacity:0.992157;paint-order:stroke markers fill"
       d="m 18.662036,148.5 c 58.851614,0 117.703234,0 176.554844,0"
       id="path29-1"
       inkscape:path-effect="#path-effect29-5"
       inkscape:original-d="m 18.662036,148.5 c 58.851614,0 117.703234,0 176.554844,0"
       transform="translate(-0.15576181,12.087502)" /></g><style
     type="text/css"
     id="style1">
	.st0{enable-background:new    ;}
	.st1{fill:#010101;}
</style></svg>
